<svg xmlns="http://www.w3.org/2000/svg" viewBox="0 0 100 100">
  <defs>
    <linearGradient id="gold-grad" x1="0%" y1="0%" x2="100%" y2="100%">
      <stop offset="0%" stop-color="#F5E6A3" />
      <stop offset="50%" stop-color="#C9A84C" />
      <stop offset="100%" stop-color="#8a6520" />
    </linearGradient>
  </defs>
  <rect width="100" height="100" rx="20" fill="#6B0F1A" />
  <path d="M 45 35 C 45 25 30 25 30 35 C 30 45 45 45 45 55 C 45 65 30 65 30 55 M 50 35 C 65 25 65 45 50 35 M 65 45 C 75 45 75 55 65 55 M 50 25 C 55 20 60 20 65 25 M 60 15 A 3 3 0 1 1 59.9 15" stroke="url(#gold-grad)" stroke-width="6" stroke-linecap="round" fill="none" />
  <path d="M 30 55 C 30 70 45 75 55 65" stroke="url(#gold-grad)" stroke-width="6" stroke-linecap="round" fill="none" />
  <circle cx="60" cy="15" r="4" fill="url(#gold-grad)" />
</svg>
